<svg version="1.1" xmlns="http://www.w3.org/2000/svg" xmlns:xlink="http://www.w3.org/1999/xlink" viewBox="0 0 200 79">
    <g id="nav-item-bg">
        <path stroke-width="2" fill="none" class="shape-outer" d="M100,1
                 L60,1
                 A30,30 0 0,1 35,10
                 L35,15
                 A10,10 0 1,0 35,65
                 L35,70
                 A30,30, 0 0,1 60,79
                 L140,79
                 A30,30, 0 0,1 165,70
                 L165,65
                 A10,10 0 1,0 165,15
                 L165,10
                 A30,30 0 0,1 140,1
                 L100,1
                 "
              />
        <path fill="#fedfcb" stroke-width="0" class="shape-inner" d="M60,6
                 A30,30 0 0,1 40,15
                 L40,20
                 A12,10 0 1,0 40,60
                 L40,65
                 A30,30, 0 0,1 60,73
                 L140,73
                 A30,30, 0 0,1 160,65
                 L160,60
                 A12,10 0 1,0 160,20
                 L160,15
                 A30,30 0 0,1 140,6
                 "
              />
    </g>
</svg>
