<svg version="1.0" xmlns="http://www.w3.org/2000/svg"
 width="347.000000pt" height="327.000000pt" viewBox="46 50 347.000000 327.000000"
 preserveAspectRatio="xMidYMid meet">
<metadata>
Created by potrace 1.11, written by Peter Selinger 2001-2013
</metadata>
  <g transform="translate(0.000000,327.000000) scale(0.100000,-0.100000)"
fill="#ba9e6c" stroke="#a98d5b" stroke-width="12">
<path d="M1691 2560 c-1 -91 -4 -187 -6 -215 -2 -27 -7 -139 -11 -248 -3 -111
-10 -195 -15 -190 -5 5 -38 139 -74 298 -71 314 -106 457 -101 410 6 -58 46
-300 56 -335 8 -32 40 -228 56 -342 3 -27 3 -48 0 -48 -7 0 -93 177 -126 260
-10 25 -40 92 -67 150 -27 58 -60 129 -73 157 -35 79 -35 57 1 -38 34 -92 106
-282 119 -314 24 -58 79 -203 85 -224 5 -15 4 -21 -3 -17 -12 7 -162 205 -212
281 -19 28 -79 113 -133 190 -95 133 -131 180 -112 145 16 -28 109 -175 115
-180 12 -10 290 -462 290 -471 0 -23 -4 -19 -245 210 -60 57 -142 135 -181
173 -40 37 -75 68 -79 68 -9 0 43 -56 235 -255 146 -152 225 -243 217 -251 -3
-3 -45 20 -94 52 -48 32 -131 83 -183 114 -52 31 -151 94 -220 139 -244 159
-212 127 70 -70 254 -177 390 -278 390 -289 0 -10 -77 17 -325 115 -271 106
-339 130 -330 114 4 -5 10 -9 15 -9 8 0 46 -17 208 -91 37 -17 123 -56 192
-86 164 -72 210 -95 210 -106 0 -5 -12 -6 -27 -3 -16 3 -73 12 -128 21 -55 8
-113 18 -130 21 -16 3 -107 18 -201 34 -95 16 -191 34 -215 39 -46 11 -85 14
-78 7 2 -3 148 -36 324 -75 379 -84 448 -102 438 -112 -11 -10 -177 -17 -556
-25 -174 -4 -316 -8 -315 -10 2 -1 127 -5 278 -9 151 -3 348 -8 438 -11 152
-6 197 -16 135 -30 -16 -3 -44 -10 -64 -15 -21 -5 -59 -14 -85 -20 -27 -5 -65
-14 -84 -18 -19 -5 -129 -30 -244 -55 -116 -26 -212 -49 -215 -51 -6 -7 7 -6
69 4 207 36 655 111 657 111 2 0 3 -4 3 -9 0 -10 -86 -53 -225 -111 -89 -38
-241 -105 -383 -170 -40 -18 -71 -34 -69 -36 2 -2 37 9 78 25 41 16 124 48
184 71 61 24 124 49 140 56 78 33 284 104 301 104 14 0 -38 -41 -181 -142 -71
-50 -132 -94 -135 -98 -3 -3 -72 -53 -155 -109 -214 -148 -228 -163 -30 -36
61 39 169 106 240 150 72 43 144 89 160 101 49 36 137 85 143 80 7 -8 -64 -89
-248 -281 -301 -314 -291 -313 44 5 130 124 241 227 246 228 18 7 10 -15 -34
-84 -151 -242 -288 -457 -319 -506 -21 -32 -36 -58 -33 -58 6 0 118 154 221
305 49 72 91 132 95 135 3 3 35 45 70 94 35 49 65 85 67 80 4 -11 4 -9 -151
-418 -103 -272 -130 -354 -71 -218 28 65 73 165 120 267 13 28 39 84 57 125
87 190 101 220 105 216 6 -6 -22 -205 -46 -331 -14 -77 -60 -345 -65 -390 -8
-61 27 80 99 400 36 159 69 293 74 298 5 5 12 -74 15 -180 3 -103 8 -217 11
-253 3 -36 5 -137 6 -225 2 -159 2 -159 15 110 6 149 13 334 13 413 1 90 5
142 11 142 13 0 13 0 39 -120 33 -144 78 -338 100 -430 5 -19 17 -74 26 -123
10 -48 20 -86 22 -83 4 3 -18 143 -57 361 -11 66 -29 170 -40 230 -11 61 -22
125 -26 143 -4 21 -3 32 5 32 11 0 64 -105 116 -230 15 -36 39 -92 54 -125 15
-33 54 -120 86 -192 32 -73 60 -131 62 -130 4 4 -35 114 -68 192 -12 28 -25
59 -30 70 -20 47 -123 325 -141 379 -17 53 -17 87 0 59 7 -11 26 -38 223 -313
49 -69 112 -158 140 -198 29 -39 53 -72 56 -72 5 0 5 1 -74 122 -35 54 -63
100 -63 104 0 3 -42 69 -93 147 -99 150 -153 244 -146 252 5 5 143 -120 299
-269 306 -294 316 -295 40 -6 -92 96 -187 197 -211 224 -24 27 -54 61 -67 74
-23 26 -23 43 0 24 7 -5 40 -25 73 -43 33 -18 80 -47 105 -64 25 -17 99 -64
165 -104 66 -41 155 -96 198 -122 42 -27 77 -47 77 -44 0 2 -73 55 -162 118
-222 155 -377 266 -411 294 -60 49 4 29 392 -124 145 -57 266 -101 269 -98 3
2 -6 9 -19 14 -13 5 -62 27 -109 49 -47 22 -179 81 -295 131 -226 98 -243 107
-233 116 6 6 23 4 453 -69 148 -25 274 -46 279 -46 26 0 -9 11 -94 29 -157 34
-319 70 -425 95 -55 13 -124 29 -152 36 -29 7 -53 16 -53 20 0 8 177 16 610
26 146 3 266 7 267 8 2 1 -189 7 -422 14 -234 6 -432 15 -441 20 -17 9 55 28
351 94 50 11 126 28 170 38 44 10 115 26 158 35 101 22 93 31 -10 11 -80 -16
-225 -41 -323 -56 -30 -5 -122 -20 -205 -34 -172 -29 -165 -29 -165 -18 0 5
84 46 188 92 103 46 219 98 257 115 139 65 200 92 223 100 13 4 21 9 19 11 -3
3 -33 -6 -68 -20 -35 -13 -125 -48 -199 -76 -74 -28 -187 -72 -250 -97 -134
-53 -200 -74 -200 -64 0 4 52 45 116 92 64 46 129 93 144 104 15 11 54 37 86
59 78 51 294 207 294 212 0 2 -30 -16 -67 -40 -188 -122 -605 -378 -609 -373
-4 4 65 91 85 107 12 9 365 385 391 415 27 31 -75 -61 -347 -318 -92 -88 -169
-154 -171 -149 -4 13 22 59 120 212 108 170 292 462 302 480 23 40 -17 -14
-74 -100 -35 -52 -88 -129 -119 -170 -31 -41 -65 -88 -77 -105 -167 -239 -214
-301 -214 -282 0 18 126 365 164 452 7 17 23 57 36 90 12 33 33 86 46 119 14
32 23 61 21 63 -3 2 -59 -121 -126 -274 -153 -347 -190 -425 -203 -417 -5 3
-7 18 -3 33 4 14 13 62 20 106 8 44 34 201 60 349 25 148 44 270 42 273 -3 2
-10 -22 -15 -54 -6 -32 -34 -155 -61 -273 -28 -118 -60 -258 -71 -310 -27
-119 -27 -120 -40 -120 -6 0 -10 50 -11 138 0 75 -7 261 -13 412 l-13 275 -2
-165z" />
</g>
</svg>